# xmcd CD database file
#
# Track frame offsets:
#	150
#	12593
#	28027
#	40617
#	53467
#	67515
#	79172
#	93131
#	107178
#	119892
#	132311
#	145143
#	159376
#	172288
#	187588
#	200540
#	213449
#	227344
#	239358
#	250385
#	263094
#	278138
#
# Disc length: 3890 seconds
#
# Revision: 0
# Processed by: cddbd v1.5.2PL0 Copyright (c) Steve Scherf et al.
# Submitted via: CDex 1.51
#
DISCID=2b0f3016
DTITLE=Little Walter - Blowing with a Feeling
DYEAR=1900
DGENRE=Blues
TTITLE0=Juke
TTITLE1=Crazy Legs
TTITLE2=Tell me Mama
TTITLE3=Off the Wall
TTITLE4=Blues with a Feeling
TTITLE5=Too Late
TTITLE6=You're So Fine
TTITLE7=Rocker
TTITLE8=I Got to Find my Baby
TTITLE9=Last Night
TTITLE10=Mellow Down Easy
TTITLE11=Rattlesnake
TTITLE12=Big World
TTITLE13=Dark Road
TTITLE14=Me and my Chauffeur
TTITLE15=I'm your Hoochie Coochie Man
TTITLE16=I'm Ready
TTITLE17=Joliet Blues
TTITLE18=So Glad I Found You
TTITLE19=That's Alright
TTITLE20=Chance to Love
TTITLE21=Sloppy Drunk
EXTD=
EXTT0=
EXTT1=
EXTT2=
EXTT3=
EXTT4=
EXTT5=
EXTT6=
EXTT7=
EXTT8=
EXTT9=
EXTT10=
EXTT11=
EXTT12=
EXTT13=
EXTT14=
EXTT15=
EXTT16=
EXTT17=
EXTT18=
EXTT19=
EXTT20=
EXTT21=
PLAYORDER=
